<?xml version="1.0" encoding="UTF-8"?>
<svg id="Layer_1" data-name="Layer 1" xmlns="http://www.w3.org/2000/svg" viewBox="0 0 329.44 105.09">
  <defs>
    <style>
      .cls-1 {
        fill: none;
        stroke: #1e1e1e;
        stroke-miterlimit: 10;
        stroke-width: 1.02px;
      }

      .cls-2 {
        fill: #1e1e1e;
      }

      .cls-3 {
        fill: #fe5733;
      }

      .cls-4 {
        isolation: isolate;
      }

      .cls-5 {
        fill: #1e1e1e;
      }
    </style>
  </defs>
  <g class="cls-4">
    <path class="cls-2" d="M28.49,69.85c.8,1.15,1.43,2.39,1.89,3.74.46,1.35.66,2.77.6,4.26-.06,1.89-.49,3.64-1.29,5.25-.8,1.61-1.86,3.01-3.18,4.21-1.32,1.2-2.87,2.14-4.64,2.79-1.78.66-3.64.96-5.59.9-2.75-.12-5.23-.83-7.44-2.15-2.21-1.32-3.88-3.07-5.03-5.25l7.4-5.16c.29,1.03.92,1.91,1.89,2.62.97.72,2.12,1.08,3.44,1.08,1.49.06,2.79-.36,3.91-1.25,1.12-.89,1.68-1.99,1.68-3.31,0-.4-.03-.69-.09-.86v-.17c-.06-.11-.09-.21-.09-.3s-.03-.19-.09-.3c-.4-.97-1.15-1.78-2.24-2.41-.17-.11-.43-.23-.77-.34l.09-.09c-.8-.46-1.69-.9-2.67-1.33-.98-.43-1.96-.89-2.97-1.38-1-.49-1.99-1-2.97-1.55-.98-.54-1.89-1.19-2.75-1.94v-.09l-.26-.26c-1.2-1.15-2.15-2.48-2.84-4-.69-1.52-1-3.14-.95-4.86.06-1.72.46-3.32,1.2-4.82.75-1.49,1.73-2.78,2.97-3.87,1.23-1.09,2.68-1.95,4.34-2.58,1.66-.63,3.44-.92,5.33-.86,2.46.12,4.69.72,6.67,1.81,1.98,1.09,3.54,2.55,4.69,4.39l-7.22,4.99c-.34-.63-.9-1.17-1.68-1.63-.77-.46-1.65-.69-2.62-.69-1.32-.06-2.45.26-3.4.95-.95.69-1.42,1.52-1.42,2.49,0,.29.03.49.09.6.11.63.4,1.18.86,1.63.46.46,1.03.83,1.72,1.12,1.09.63,2.33,1.28,3.74,1.93,1.4.66,2.82,1.39,4.26,2.19,1.03.46,2.06,1.12,3.1,1.98l.43.43c.57.52,1.2,1.2,1.89,2.06Z"/>
    <path class="cls-2" d="M71.06,71.14h-17.29c.34,1.55.93,3,1.76,4.34.83,1.35,1.85,2.51,3.05,3.48,1.2.98,2.55,1.74,4.04,2.28,1.49.55,3.07.82,4.73.82,2.01,0,3.88-.4,5.63-1.2,1.75-.8,3.28-1.92,4.6-3.35h10.41c-.34.86-.76,1.68-1.25,2.45-.49.77-1.02,1.53-1.59,2.28-2.06,2.64-4.64,4.74-7.74,6.32-3.1,1.58-6.45,2.37-10.06,2.37-3.15,0-6.11-.59-8.86-1.76-2.75-1.17-5.16-2.79-7.22-4.86-2.06-2.06-3.68-4.47-4.86-7.22-1.18-2.75-1.76-5.7-1.76-8.86s.59-6.11,1.76-8.86c1.17-2.75,2.79-5.16,4.86-7.22s4.47-3.68,7.22-4.86c2.75-1.17,5.7-1.76,8.86-1.76,3.61,0,6.97.79,10.06,2.37,3.1,1.58,5.68,3.71,7.74,6.41,1.89,2.29,3.27,4.99,4.13,8.08.52,1.83.77,3.78.77,5.85,0,1.03-.09,2.01-.26,2.92h-18.75ZM67.36,54.37c-2.81,0-5.32.72-7.53,2.17-2.21,1.45-3.88,3.36-5.03,5.74h25.11c-.29-.45-.56-.91-.82-1.36-.26-.45-.53-.88-.82-1.28-1.32-1.65-2.92-2.94-4.82-3.87-1.89-.94-3.93-1.4-6.11-1.4Z"/>
    <path class="cls-2" d="M134.44,48.43c2.72,1.84,4.88,4.2,6.47,7.1,1.59,2.9,2.38,6.06,2.38,9.5v25.89h-8.86v-25.89c0-1.49-.29-2.91-.86-4.26-.58-1.35-1.37-2.52-2.37-3.53-1.01-1-2.17-1.79-3.5-2.37-1.32-.57-2.73-.86-4.23-.86s-2.92.29-4.27.86c-1.35.57-2.52,1.36-3.5,2.37-.98,1-1.76,2.18-2.33,3.53-.58,1.35-.86,2.77-.86,4.26v25.89h-8.86v-45.75h8.86l.07,3.27c1.55-1.03,3.26-1.83,5.12-2.41s3.8-.86,5.81-.86,3.95.29,5.81.86,3.57,1.38,5.12,2.41Z"/>
    <path class="cls-2" d="M158.34,40.78v-8.86h8.86v8.86h-8.86ZM167.2,45.42v45.41h-8.86v-45.41h8.86Z"/>
    <path class="cls-2" d="M207.11,69.85c.8,1.15,1.43,2.39,1.89,3.74.46,1.35.66,2.77.6,4.26-.06,1.89-.49,3.64-1.29,5.25-.8,1.61-1.86,3.01-3.18,4.21-1.32,1.2-2.87,2.14-4.64,2.79-1.78.66-3.64.96-5.59.9-2.75-.12-5.23-.83-7.44-2.15-2.21-1.32-3.88-3.07-5.03-5.25l7.4-5.16c.29,1.03.92,1.91,1.89,2.62.97.72,2.12,1.08,3.44,1.08,1.49.06,2.79-.36,3.91-1.25,1.12-.89,1.68-1.99,1.68-3.31,0-.4-.03-.69-.09-.86v-.17c-.06-.11-.09-.21-.09-.3s-.03-.19-.09-.3c-.4-.97-1.15-1.78-2.24-2.41-.17-.11-.43-.23-.77-.34l.09-.09c-.8-.46-1.69-.9-2.67-1.33-.98-.43-1.96-.89-2.97-1.38-1-.49-1.99-1-2.97-1.55-.98-.54-1.89-1.19-2.75-1.94v-.09l-.26-.26c-1.2-1.15-2.15-2.48-2.84-4-.69-1.52-1-3.14-.95-4.86.06-1.72.46-3.32,1.2-4.82.75-1.49,1.73-2.78,2.97-3.87,1.23-1.09,2.68-1.95,4.34-2.58,1.66-.63,3.44-.92,5.33-.86,2.46.12,4.69.72,6.67,1.81,1.98,1.09,3.54,2.55,4.69,4.39l-7.22,4.99c-.34-.63-.9-1.17-1.68-1.63-.77-.46-1.65-.69-2.62-.69-1.32-.06-2.45.26-3.4.95-.95.69-1.42,1.52-1.42,2.49,0,.29.03.49.09.6.11.63.4,1.18.86,1.63.46.46,1.03.83,1.72,1.12,1.09.63,2.33,1.28,3.74,1.93,1.4.66,2.82,1.39,4.26,2.19,1.03.46,2.06,1.12,3.1,1.98l.43.43c.57.52,1.2,1.2,1.89,2.06Z"/>
    <path class="cls-2" d="M256.38,91h-10.92l-13.16-18.06-.17.17v17.63h-8.86V16.36h8.86v41.54l.17.17,9.03-12.47h10.92l-14.53,19.95,18.66,25.46Z"/>
  </g>
  <circle class="cls-1" cx="286.64" cy="69.26" r="22.54"/>
  <circle class="cls-3" cx="318.32" cy="84.91" r="6.79"/>
  <circle class="cls-5" cx="286.64" cy="69.26" r="15.52"/>
</svg>